<?xml version="1.0" encoding="UTF-8"?>
<!-- Generator: Adobe Illustrator 16.0.0, SVG Export Plug-In . SVG Version: 6.00 Build 0)  -->
<!DOCTYPE svg PUBLIC "-//W3C//DTD SVG 1.1//EN" "http://www.w3.org/Graphics/SVG/1.1/DTD/svg11.dtd">
<svg version="1.1" id="Layer_1" xmlns="http://www.w3.org/2000/svg" xmlns:xlink="http://www.w3.org/1999/xlink" x="0px" y="0px" viewBox="0 0 171.608 159.293" enable-background="new 0 0 171.608 159.293" xml:space="preserve">
<path fill="#AA9A69" d="M62.621,84.017v75.276h10.268v-34.72l29.512,14.394v-11.375l-29.512-14.42v-12.193l30.793,15.445v-11.757  L72.889,89.176L62.621,84.017z M0,159.293h54.322v-50.521L0,82.373V159.293z M10.267,32.094l25.666,12.257V32.974L10.267,20.716  V10.267h25.666V0H0v73.991l10.267,4.988V32.094z M54.322,0H44.057v66.847l59.625,29.905v-11.76l-49.36-24.54V0z M130.542,0v54.495  l41.066,20.599V0H130.542z M161.34,58.461l-20.531-10.3V10.267h20.531V58.461z M122.249,0h-10.268v66.847l59.627,29.905v-11.76  l-49.359-24.54V0z M136.874,101.682l-24.893-12.541v70.152h10.525v-53.175l14.367,6.704v46.471h10.266v-52.834l14.201,6.706v46.128  h10.268v-52.636l-34.734-17.172V101.682z M93.417,32.884L72.889,22.838V0H62.621v28.834l30.795,15.442v14.312L62.621,43.537v11.379  l41.061,19.951V0H93.417V32.884z"/>
</svg>