<?xml version="1.0" encoding="UTF-8"?>
<svg version="1.1" xmlns="http://www.w3.org/2000/svg" width="268" height="86">
<path d="M0 0 C6.27 0 12.54 0 19 0 C19 1.98 19 3.96 19 6 C20.60875 6.1546875 20.60875 6.1546875 22.25 6.3125 C25.85820872 6.97400493 27.36395023 7.57483421 30 10 C31.7015625 9.01 31.7015625 9.01 33.4375 8 C38.01597165 5.72694252 41.95231468 5.17997892 47 6 C48.9140625 6.7890625 48.9140625 6.7890625 50.6875 7.6875 C51.780625 8.120625 52.87375 8.55375 54 9 C57.04990627 7.72512465 57.04990627 7.72512465 60 6 C65.23955679 5.43861892 68.56777353 6.14367628 73 9 C77.66359318 14.16776541 78.31751702 17.35450027 78.30859375 24.171875 C77.99462957 27.04921763 77.42500385 28.53682064 75.875 30.9375 C75.25625 31.948125 74.6375 32.95875 74 34 C74.63529696 35.34856219 75.30785639 36.67971236 76 38 C76.66071926 43.51623758 76.73198334 48.4234205 74.375 53.5 C70.58793973 57.48637924 67.31748124 60.21296595 61.6953125 60.390625 C60.17138051 60.36435031 58.6476807 60.31710118 57.125 60.25 C56.34125 60.23195312 55.5575 60.21390625 54.75 60.1953125 C52.83279811 60.14855148 50.91623285 60.07682003 49 60 C49.26490234 61.34771484 49.26490234 61.34771484 49.53515625 62.72265625 C50.27744679 67.95611645 49.54566615 72.54183215 46.703125 77.0625 C43.16243352 81.44273688 40.04072893 83.61935562 34.31640625 84.3359375 C28.17319387 84.42307526 24.69003153 84.07292212 20 80 C19.67 79.67 19.34 79.34 19 79 C14.96173071 78.57234667 11.0318087 78.49398352 7 79 C4.30211406 81.24122355 4.30211406 81.24122355 3 84 C-0.4222579 85.71112895 -4.2491464 85.41826065 -8 85 C-8.70125 84.46375 -9.4025 83.9275 -10.125 83.375 C-10.74375 82.92125 -11.3625 82.4675 -12 82 C-14.34326294 82.63087848 -16.6756398 83.30269194 -19 84 C-22.59971899 83.98654311 -25.93296463 83.6466881 -29.0625 81.75 C-30.0215625 81.37875 -30.0215625 81.37875 -31 81 C-32.61251985 81.7390716 -34.22352881 82.4817386 -35.82421875 83.24609375 C-43.36912487 85.86039695 -50.95061494 84.18098998 -57.94140625 80.875 C-60.08735168 79.80441119 -60.08735168 79.80441119 -63 80 C-63.598125 80.45375 -64.19625 80.9075 -64.8125 81.375 C-70.88270501 85.88429515 -77.76688096 85.3601957 -85 85 C-86.27875 84.79375 -87.5575 84.5875 -88.875 84.375 C-91.97122366 83.76698863 -91.97122366 83.76698863 -94.64453125 84.94921875 C-102.06504292 87.27298783 -111.71859066 87.44867813 -119.10546875 84.94921875 C-122.17287709 83.25288689 -124.5253952 81.4746048 -127 79 C-129.97320266 79.39642702 -132.37210564 80.60393112 -135 82 C-141.28270228 85.33768559 -148.28508615 86.37795017 -155.21875 84.3515625 C-160.26931 82.0788105 -163.98068446 78.64334132 -167 74 C-167 73.34 -167 72.68 -167 72 C-167.65484375 72.03480469 -168.3096875 72.06960937 -168.984375 72.10546875 C-176.42559537 72.32618291 -182.87474628 71.08907962 -190 69 C-189.44854729 63.76119922 -188.57077907 59.02649303 -187 54 C-185.27073126 54.31193464 -183.54158956 54.62457362 -181.8125 54.9375 C-180.84957031 55.11152344 -179.88664063 55.28554688 -178.89453125 55.46484375 C-176.25760028 55.9523735 -173.6280095 56.46671105 -171 57 C-170.97421875 56.29875 -170.9484375 55.5975 -170.921875 54.875 C-170.41679048 46.42631354 -168.97072035 40.27118302 -162.5 34.5 C-158.09387514 31.4883229 -154.03462647 31.21135294 -148.7890625 31.45703125 C-144.61467236 32.26969264 -142.81228193 33.8752423 -140 37 C-139.90203125 36.03320312 -139.8040625 35.06640625 -139.703125 34.0703125 C-138.52146286 23.78170249 -137.01343871 14.14498633 -129.63671875 6.28515625 C-126.80383721 4.06076955 -124.52927133 3.8739546 -121 4 C-115.5942732 5.90790358 -112.70441892 8.70088869 -110.08984375 13.76171875 C-107.04470714 21.19751745 -107.73902683 29.12247648 -108 37 C-103.05 36.505 -103.05 36.505 -98 36 C-98.99 35.01 -99.98 34.02 -101 33 C-101.5 30.5625 -101.5 30.5625 -101 28 C-97.91860854 25.08078704 -95.57047034 22.97095859 -91.25390625 23.05078125 C-90.03574219 23.13714844 -88.81757812 23.22351563 -87.5625 23.3125 C-86.5422876 23.38416382 -86.5422876 23.38416382 -85.50146484 23.45727539 C-83.9251203 23.56904262 -82.34896045 23.68343189 -80.77294922 23.79980469 C-77.61115893 24.0280727 -74.44829215 24.23653931 -71.28515625 24.4453125 C-68.89839943 24.60882026 -66.51168067 24.77288452 -64.125 24.9375 C-62.41485718 25.04928589 -62.41485718 25.04928589 -60.67016602 25.16333008 C-53.97609416 25.64095535 -47.54020394 26.48381977 -41 28 C-39.58091604 25.16183209 -39.58238931 22.4010507 -39.25 19.25 C-38.10175839 11.20404802 -38.10175839 11.20404802 -35.9375 8.125 C-32.46168688 5.610582 -30.38563098 5.13667326 -26.16015625 5.390625 C-22.38374121 6.45594281 -21.08040227 8.77873197 -19 12 C-18.071875 11.195625 -17.14375 10.39125 -16.1875 9.5625 C-11.66193843 5.64034664 -7.75707635 5.81723567 -2 6 C-1.01 6.495 -1.01 6.495 0 7 C0 4.69 0 2.38 0 0 Z " fill="#060204" transform="translate(190,0)"/>
<path d="M0 0 C4.14468215 1.38156072 5.08025816 3.28851973 7.20703125 6.95703125 C11.93536022 17.11069385 9.79492143 31.56356927 6.4765625 41.78125 C4.40103258 47.06441708 1.91937015 52.09049633 -0.8125 57.0625 C0.28405288 58.38136772 1.39003423 59.69240057 2.5 61 C3.11488281 61.73089844 3.72976562 62.46179688 4.36328125 63.21484375 C7.35227808 66.24224311 10.31284108 66.24374696 14.375 66.3125 C19.64718131 66.28445648 23.40855688 65.22654972 28.1875 63.0625 C28.1875 61.3915572 28.14051091 59.7207004 28.08203125 58.05078125 C27.76515102 43.85152922 27.76515102 43.85152922 32.9375 38.125 C36.23359048 36.56851283 38.58753157 36.62039861 42.1875 37.0625 C44.94079021 38.85812405 46.71377461 40.11504922 48.1875 43.0625 C48.74498601 47.63205747 48.67326446 51.10965432 46.5625 55.25 C43.9142541 58.38608067 41.15635852 61.2285896 38.1875 64.0625 C39.38877338 65.47873036 39.38877338 65.47873036 42.875 65.375 C47.37742079 65.28655959 49.76643125 64.10345 53.1875 61.0625 C57.25098494 56.17731312 58.65486631 51.58690473 59.6640625 45.3984375 C60.72939394 40.6441972 63.13503681 37.76414213 67.1875 35.0625 C69.37890625 34.796875 69.37890625 34.796875 71.75 34.8125 C72.92755859 34.80476563 72.92755859 34.80476563 74.12890625 34.796875 C76.1875 35.0625 76.1875 35.0625 78.1875 37.0625 C78.4375 39.5625 78.4375 39.5625 78.1875 42.0625 C76.07982408 44.17017592 75.01601987 44.56185125 72.25 45.4375 C69.67244483 46.37776967 68.24693368 47.00863823 66.1875 48.875 C64.53498882 52.48986822 64.69291215 55.57873646 65.9375 59.3125 C67.51861499 61.52606098 68.65341113 62.06164137 71.1875 63.0625 C76.92361303 63.75845241 82.30861102 64.22741117 87.3125 61.125 C91.52352071 54.24699951 92.70449238 46.92921392 93.375 39 C93.45685547 38.13439453 93.53871094 37.26878906 93.62304688 36.37695312 C93.82065552 34.27300226 94.00545005 32.16785418 94.1875 30.0625 C93.30449219 30.1346875 92.42148438 30.206875 91.51171875 30.28125 C81.02705694 31.09209388 71.21590207 31.63508971 60.84765625 29.6953125 C57.87557831 29.18146338 54.92364857 28.75214579 51.93359375 28.3671875 C50.53149658 28.18313354 50.53149658 28.18313354 49.10107422 27.99536133 C47.23008941 27.75231595 45.35801355 27.51749854 43.48486328 27.29174805 C38.72559252 26.65949906 35.13473092 26.02086305 31.1875 23.0625 C31.1875 23.7225 31.1875 24.3825 31.1875 25.0625 C29.8675 24.4025 28.5475 23.7425 27.1875 23.0625 C27.1875 21.7425 27.1875 20.4225 27.1875 19.0625 C28.5075 18.7325 29.8275 18.4025 31.1875 18.0625 C31.1875 18.7225 31.1875 19.3825 31.1875 20.0625 C31.89777344 19.97871094 32.60804687 19.89492188 33.33984375 19.80859375 C34.25894531 19.70675781 35.17804688 19.60492187 36.125 19.5 C37.04152344 19.39558594 37.95804687 19.29117187 38.90234375 19.18359375 C40.03349609 19.12365234 40.03349609 19.12365234 41.1875 19.0625 C41.5175 19.3925 41.8475 19.7225 42.1875 20.0625 C43.60414997 20.08443927 45.02160571 20.05120372 46.4375 20 C59.82246747 19.89501986 73.34456526 21.24246746 86.1875 25.0625 C86.23237549 24.47758789 86.27725098 23.89267578 86.32348633 23.29003906 C86.53534253 20.62956843 86.76745193 17.97123854 87 15.3125 C87.10538086 13.93191406 87.10538086 13.93191406 87.21289062 12.5234375 C87.33374023 11.18925781 87.33374023 11.18925781 87.45703125 9.828125 C87.52510986 9.01118164 87.59318848 8.19423828 87.66333008 7.35253906 C88.28035814 4.65681328 89.40651492 3.14694317 91.1875 1.0625 C95.9375 1.8125 95.9375 1.8125 98.1875 4.0625 C99.56893449 7.78653453 99.3669599 11.73131165 99.390625 15.65234375 C99.39632507 16.39271378 99.40202515 17.1330838 99.40789795 17.89588928 C99.41733262 19.46516501 99.42387584 21.03446042 99.42773438 22.60375977 C99.43734033 24.96082217 99.46833449 27.31697389 99.5 29.67382812 C99.5561987 37.92381932 99.08096557 45.35049172 96.83496094 53.36547852 C96.18324972 56.08020467 95.92100663 58.28493404 96.1875 61.0625 C97.94886355 63.24581689 97.94886355 63.24581689 100.1328125 63.2578125 C103.16015625 63.16015625 103.16015625 63.16015625 106.1875 63.0625 C106.20208252 62.45253174 106.21666504 61.84256348 106.23168945 61.21411133 C106.30644775 58.43378936 106.40301482 55.65463176 106.5 52.875 C106.53383789 51.43543945 106.53383789 51.43543945 106.56835938 49.96679688 C106.92706033 40.54274459 106.92706033 40.54274459 110.1875 37.0625 C112.34375 36.46875 112.34375 36.46875 114.6875 36.5625 C115.4609375 36.5728125 116.234375 36.583125 117.03125 36.59375 C119.1875 37.0625 119.1875 37.0625 120.62890625 38.67578125 C121.40041016 39.36220703 121.40041016 39.36220703 122.1875 40.0625 C124.79327043 39.75413863 124.79327043 39.75413863 127.625 38.75 C137.19180706 36.07267884 149.01194268 35.47472134 158.1875 40.0625 C160.280756 40.15987784 162.37713747 40.19326823 164.47265625 40.1953125 C165.72498047 40.19660156 166.97730469 40.19789062 168.26757812 40.19921875 C170.23887695 40.19341797 170.23887695 40.19341797 172.25 40.1875 C173.56806641 40.19136719 174.88613281 40.19523437 176.24414062 40.19921875 C178.12069336 40.19728516 178.12069336 40.19728516 180.03515625 40.1953125 C181.7677771 40.19362061 181.7677771 40.19362061 183.53540039 40.19189453 C186.10999751 40.36393859 186.10999751 40.36393859 187.1875 39.0625 C187.35416667 35.5625 187.35416667 35.5625 187.1875 32.0625 C185.158651 30.033651 180.96683301 30.8772169 178.17944336 30.85717773 C176.92101372 30.84232834 176.92101372 30.84232834 175.63716125 30.82717896 C172.8505846 30.79546815 170.06399087 30.77076886 167.27734375 30.74609375 C165.35062708 30.72553248 163.42391501 30.70453624 161.49720764 30.68312073 C156.415677 30.62781458 151.33410508 30.57844312 146.25250244 30.53027344 C141.0712922 30.48012062 135.8901422 30.42440217 130.70898438 30.36914062 C120.53520767 30.26145463 110.36137875 30.160033 100.1875 30.0625 C100.1875 28.4125 100.1875 26.7625 100.1875 25.0625 C111.44446678 24.96981763 122.70134277 24.89874381 133.9586134 24.85525131 C139.18584356 24.83437699 144.41281266 24.80606192 149.63989258 24.76074219 C154.68438088 24.71727929 159.72861809 24.69336173 164.77327919 24.68299103 C166.69782781 24.67560048 168.6223627 24.66116846 170.54680443 24.63957977 C173.24268663 24.61053986 175.93753147 24.60654423 178.63354492 24.60839844 C179.82685173 24.58682678 179.82685173 24.58682678 181.04426575 24.56481934 C184.80754087 24.59282425 186.95852809 24.91586375 190.15962219 26.96588135 C193.51571013 30.43573369 193.58058939 33.12829787 193.54296875 37.80078125 C192.97422178 41.41951199 191.03584388 42.94280223 188.1875 45.0625 C184.87652152 46.16615949 182.31894573 46.22010505 178.83203125 46.2734375 C177.56939453 46.30179688 176.30675781 46.33015625 175.00585938 46.359375 C172.35476018 46.41386964 169.70422636 46.45545233 167.05273438 46.4921875 C160.13935337 46.66072091 154.41266781 46.91503035 148.1875 50.0625 C146.9636108 52.51027839 147.171136 53.79640541 147.4375 56.5 C147.50453125 57.28246094 147.5715625 58.06492188 147.640625 58.87109375 C148.29367022 61.48793922 149.00991109 62.4889509 151.1875 64.0625 C154.77083333 64.14583333 154.77083333 64.14583333 158.1875 63.0625 C160.79056683 60.23307954 160.41308197 56.63264873 160.32421875 52.96875 C160.17646318 50.90861522 159.84136316 49.02408947 159.1875 47.0625 C161.5625 46.875 161.5625 46.875 164.1875 47.0625 C167.17011067 51.53641601 166.7877363 55.81793534 166.1875 61.0625 C164.3817807 64.95174158 162.92002453 66.57415031 159.375 68.9375 C155.650549 70.25201212 153.11000027 70.56172731 149.1875 70.0625 C144.90922057 67.53442579 142.8556799 64.71584394 141.1875 60.0625 C140.46691667 55.1678059 140.70183683 51.96907125 143.0625 47.5625 C145.1875 45.0625 145.1875 45.0625 147.1875 44.0625 C144.62471301 44.00829299 142.06308517 43.96872993 139.5 43.9375 C138.77876953 43.92074219 138.05753906 43.90398438 137.31445312 43.88671875 C133.16392808 43.84881441 129.86324874 44.05243472 126.1875 46.0625 C124.9861853 48.46512939 125.01633295 50.09902538 124.94140625 52.78125 C124.89209961 54.17923828 124.89209961 54.17923828 124.84179688 55.60546875 C124.7806026 57.57670563 124.72331026 59.54806751 124.66992188 61.51953125 C124.63576172 62.45152344 124.60160156 63.38351563 124.56640625 64.34375 C124.52882202 65.62862305 124.52882202 65.62862305 124.49047852 66.93945312 C124.1875 69.0625 124.1875 69.0625 122.1875 71.0625 C118.5625 71.1875 118.5625 71.1875 115.1875 71.0625 C115.144779 69.39638095 115.14686168 67.72867115 115.1875 66.0625 C115.5175 65.7325 115.8475 65.4025 116.1875 65.0625 C116.34490605 63.35686222 116.43843392 61.64522756 116.50390625 59.93359375 C116.54580078 58.89912109 116.58769531 57.86464844 116.63085938 56.79882812 C116.67017578 55.71021484 116.70949219 54.62160156 116.75 53.5 C116.79318359 52.40751953 116.83636719 51.31503906 116.88085938 50.18945312 C116.98732068 47.48060436 117.08933516 44.77166008 117.1875 42.0625 C115.5375 42.0625 113.8875 42.0625 112.1875 42.0625 C112.21368408 42.63693848 112.23986816 43.21137695 112.2668457 43.80322266 C112.371418 46.43103171 112.43600944 49.05840231 112.5 51.6875 C112.5628418 53.04294922 112.5628418 53.04294922 112.62695312 54.42578125 C112.70899425 58.92163464 112.70763202 62.06692325 109.79296875 65.6484375 C105.92762732 69.22981832 103.55699904 69.38797741 98.453125 69.36328125 C95.18431745 68.92931887 93.4370682 67.38463491 91.1875 65.0625 C90.36121094 65.71089844 89.53492188 66.35929687 88.68359375 67.02734375 C85.03591046 69.44878912 81.54732639 69.71501225 77.25 69.625 C76.54214355 69.61839355 75.83428711 69.61178711 75.10498047 69.60498047 C67.88743947 69.33927336 65.12643263 67.00143263 60.1875 62.0625 C59.66800781 62.54460937 59.14851563 63.02671875 58.61328125 63.5234375 C52.58445739 68.98392491 48.59747838 71.4422124 40.37109375 71.34765625 C38.1875 71.0625 38.1875 71.0625 35.3125 69.3125 C31.49087566 67.78385026 30.86448144 68.33667103 27.1875 69.875 C20.53157861 72.61567351 14.30694379 72.94011697 7.1875 72.0625 C2.27725509 69.78274344 -1.10180527 65.94989448 -4.8125 62.0625 C-7.58980475 63.39857533 -10.16646636 64.88448211 -12.75 66.5625 C-18.35667341 70.06279887 -23.03517916 72.08232542 -29.8125 71.0625 C-35.67330982 69.04444796 -38.65361954 65.23157711 -41.8125 60.0625 C-41.8125 59.4025 -41.8125 58.7425 -41.8125 58.0625 C-42.66972656 58.08570313 -43.52695312 58.10890625 -44.41015625 58.1328125 C-50.61623869 58.23076645 -55.9696222 58.23659407 -61.8125 56.0625 C-61.8125 54.4125 -61.8125 52.7625 -61.8125 51.0625 C-61.18085937 51.1346875 -60.54921875 51.206875 -59.8984375 51.28125 C-43.18951228 53.47459441 -43.18951228 53.47459441 -27.8125 48.0625 C-25.64528218 44.81167327 -25.54028982 43.77017847 -25.5625 40 C-25.55734375 39.12214844 -25.5521875 38.24429688 -25.546875 37.33984375 C-25.59690648 34.86447672 -25.59690648 34.86447672 -27.8125 33.0625 C-30.77798029 32.91646163 -30.77798029 32.91646163 -33.8125 34.0625 C-38.86906676 39.11906676 -38.59049553 45.20256177 -38.8125 52.0625 C-40.4625 52.0625 -42.1125 52.0625 -43.8125 52.0625 C-44.73660996 38.59103036 -44.73660996 38.59103036 -40.22265625 32.65625 C-39.75730469 32.1303125 -39.29195312 31.604375 -38.8125 31.0625 C-38.07 30.216875 -37.3275 29.37125 -36.5625 28.5 C-33.07669151 26.67787283 -30.80626866 26.67565407 -26.97265625 27.34765625 C-24.20563025 28.2633267 -22.30370801 29.58096733 -20.625 31.98828125 C-18.83562673 36.55634473 -19.10959023 41.28008588 -19.8125 46.0625 C-22.09543906 50.97959952 -25.06818379 53.50056925 -29.8125 56.0625 C-33.1875 56.8125 -33.1875 56.8125 -35.8125 57.0625 C-34.05646281 61.19328991 -34.05646281 61.19328991 -31.125 64.5 C-25.56175244 65.85322238 -20.97578709 64.37841764 -16.0625 61.8125 C-11.04659505 58.79840528 -11.04659505 58.79840528 -7.8125 54.0625 C-8.26165795 51.6728053 -8.988931 49.58925401 -9.91796875 47.34375 C-12.26690483 41.35345012 -12.03014656 35.21222923 -12.0625 28.875 C-12.083125 27.88435547 -12.10375 26.89371094 -12.125 25.87304688 C-12.17335603 16.65517953 -10.64146716 8.39571675 -4.8125 1.0625 C-2.8125 0.0625 -2.8125 0.0625 0 0 Z " fill="#D7388E" transform="translate(67.8125,8.9375)"/>
<path d="M0 0 C4.14468215 1.38156072 5.08025816 3.28851973 7.20703125 6.95703125 C11.93536022 17.11069385 9.79492143 31.56356927 6.4765625 41.78125 C4.40103258 47.06441708 1.91937015 52.09049633 -0.8125 57.0625 C0.28405288 58.38136772 1.39003423 59.69240057 2.5 61 C3.11488281 61.73089844 3.72976562 62.46179688 4.36328125 63.21484375 C7.35227808 66.24224311 10.31284108 66.24374696 14.375 66.3125 C19.64718131 66.28445648 23.40855688 65.22654972 28.1875 63.0625 C28.1875 61.3915572 28.14051091 59.7207004 28.08203125 58.05078125 C27.76515102 43.85152922 27.76515102 43.85152922 32.9375 38.125 C36.23359048 36.56851283 38.58753157 36.62039861 42.1875 37.0625 C44.94079021 38.85812405 46.71377461 40.11504922 48.1875 43.0625 C48.73453337 47.54638006 48.65782752 51.082651 46.6875 55.1875 C38.9132509 64.12788646 29.77411438 71.26262459 17.70703125 72.38671875 C12.51411437 72.54540641 8.44213411 72.64500869 3.6875 70.4375 C0.79552183 67.69012074 -2.05763376 64.94855034 -4.8125 62.0625 C-7.58980475 63.39857533 -10.16646636 64.88448211 -12.75 66.5625 C-18.35667341 70.06279887 -23.03517916 72.08232542 -29.8125 71.0625 C-35.67330982 69.04444796 -38.65361954 65.23157711 -41.8125 60.0625 C-41.8125 59.4025 -41.8125 58.7425 -41.8125 58.0625 C-42.66972656 58.08570313 -43.52695312 58.10890625 -44.41015625 58.1328125 C-50.61623869 58.23076645 -55.9696222 58.23659407 -61.8125 56.0625 C-61.8125 54.4125 -61.8125 52.7625 -61.8125 51.0625 C-61.18085937 51.1346875 -60.54921875 51.206875 -59.8984375 51.28125 C-43.18951228 53.47459441 -43.18951228 53.47459441 -27.8125 48.0625 C-25.64528218 44.81167327 -25.54028982 43.77017847 -25.5625 40 C-25.55734375 39.12214844 -25.5521875 38.24429688 -25.546875 37.33984375 C-25.59690648 34.86447672 -25.59690648 34.86447672 -27.8125 33.0625 C-30.77798029 32.91646163 -30.77798029 32.91646163 -33.8125 34.0625 C-38.86906676 39.11906676 -38.59049553 45.20256177 -38.8125 52.0625 C-40.4625 52.0625 -42.1125 52.0625 -43.8125 52.0625 C-44.73660996 38.59103036 -44.73660996 38.59103036 -40.22265625 32.65625 C-39.75730469 32.1303125 -39.29195312 31.604375 -38.8125 31.0625 C-38.07 30.216875 -37.3275 29.37125 -36.5625 28.5 C-33.07669151 26.67787283 -30.80626866 26.67565407 -26.97265625 27.34765625 C-24.20563025 28.2633267 -22.30370801 29.58096733 -20.625 31.98828125 C-18.83562673 36.55634473 -19.10959023 41.28008588 -19.8125 46.0625 C-22.09543906 50.97959952 -25.06818379 53.50056925 -29.8125 56.0625 C-33.1875 56.8125 -33.1875 56.8125 -35.8125 57.0625 C-34.05646281 61.19328991 -34.05646281 61.19328991 -31.125 64.5 C-25.56175244 65.85322238 -20.97578709 64.37841764 -16.0625 61.8125 C-11.04659505 58.79840528 -11.04659505 58.79840528 -7.8125 54.0625 C-8.26165795 51.6728053 -8.988931 49.58925401 -9.91796875 47.34375 C-12.26690483 41.35345012 -12.03014656 35.21222923 -12.0625 28.875 C-12.083125 27.88435547 -12.10375 26.89371094 -12.125 25.87304688 C-12.17335603 16.65517953 -10.64146716 8.39571675 -4.8125 1.0625 C-2.8125 0.0625 -2.8125 0.0625 0 0 Z " fill="#D4388D" transform="translate(67.8125,8.9375)"/>
<path d="M0 0 C4.75 0.75 4.75 0.75 7 3 C8.34919909 6.67452941 8.19570945 10.54716132 8.23828125 14.4140625 C8.25290405 15.49908051 8.25290405 15.49908051 8.26782227 16.60601807 C8.54913231 42.87967303 8.54913231 42.87967303 6.3125 52.875 C6.16401611 53.5551416 6.01553223 54.2352832 5.86254883 54.93603516 C4.3677566 60.5307245 1.13674118 63.35967344 -3.3203125 66.78125 C-6.83716913 68.38075331 -10.0784224 68.53266063 -13.875 68.5 C-14.94355225 68.49685791 -14.94355225 68.49685791 -16.03369141 68.49365234 C-23.30445869 68.27454249 -26.02590886 65.97409114 -31 61 C-31.51949219 61.48210937 -32.03898437 61.96421875 -32.57421875 62.4609375 C-38.59686613 67.91583069 -42.60421674 70.42076981 -50.83984375 70.26953125 C-53.7523048 69.90613195 -55.6997289 68.78085505 -58 67 C-57.67 66.01 -57.34 65.02 -57 64 C-56.13117188 64.04640625 -55.26234375 64.0928125 -54.3671875 64.140625 C-47.25293449 64.40658055 -47.25293449 64.40658055 -40.5 62.5 C-34.9777231 56.9777231 -32.77116702 51.98710906 -31.5234375 44.3359375 C-30.45810606 39.5816972 -28.05246319 36.70164213 -24 34 C-21.80859375 33.734375 -21.80859375 33.734375 -19.4375 33.75 C-18.25994141 33.74226563 -18.25994141 33.74226563 -17.05859375 33.734375 C-15 34 -15 34 -13 36 C-12.75 38.5 -12.75 38.5 -13 41 C-15.10767592 43.10767592 -16.17148013 43.49935125 -18.9375 44.375 C-21.51505517 45.31526967 -22.94056632 45.94613823 -25 47.8125 C-26.65251118 51.42736822 -26.49458785 54.51623646 -25.25 58.25 C-23.66888501 60.46356098 -22.53408887 60.99914137 -20 62 C-14.26388697 62.69595241 -8.87888898 63.16491117 -3.875 60.0625 C0.33602071 53.18449951 1.51699238 45.86671392 2.1875 37.9375 C2.26935547 37.07189453 2.35121094 36.20628906 2.43554688 35.31445312 C2.63315552 33.21050226 2.81795005 31.10535418 3 29 C2.11699219 29.0721875 1.23398438 29.144375 0.32421875 29.21875 C-10.16044306 30.02959388 -19.97159793 30.57258971 -30.33984375 28.6328125 C-33.31192169 28.11896338 -36.26385143 27.68964579 -39.25390625 27.3046875 C-40.1886377 27.18198486 -41.12336914 27.05928223 -42.08642578 26.93286133 C-43.95741059 26.68981595 -45.82948645 26.45499854 -47.70263672 26.22924805 C-52.46190748 25.59699906 -56.05276908 24.95836305 -60 22 C-60 22.66 -60 23.32 -60 24 C-61.32 23.34 -62.64 22.68 -64 22 C-64 20.68 -64 19.36 -64 18 C-62.68 17.67 -61.36 17.34 -60 17 C-60 17.66 -60 18.32 -60 19 C-58.93458984 18.87431641 -58.93458984 18.87431641 -57.84765625 18.74609375 C-56.46900391 18.59333984 -56.46900391 18.59333984 -55.0625 18.4375 C-54.14597656 18.33308594 -53.22945312 18.22867187 -52.28515625 18.12109375 C-51.15400391 18.06115234 -51.15400391 18.06115234 -50 18 C-49.67 18.33 -49.34 18.66 -49 19 C-47.58335003 19.02193927 -46.16589429 18.98870372 -44.75 18.9375 C-31.36503253 18.83251986 -17.84293474 20.17996746 -5 24 C-4.95512451 23.41508789 -4.91024902 22.83017578 -4.86401367 22.22753906 C-4.65215747 19.56706843 -4.42004807 16.90873854 -4.1875 14.25 C-4.11724609 13.32960938 -4.04699219 12.40921875 -3.97460938 11.4609375 C-3.85375977 10.12675781 -3.85375977 10.12675781 -3.73046875 8.765625 C-3.62835083 7.54020996 -3.62835083 7.54020996 -3.52416992 6.29003906 C-2.90714186 3.59431328 -1.78098508 2.08444317 0 0 Z " fill="#D5388D" transform="translate(159,10)"/>
<path d="M0 0 C11.3261163 -0.02312255 22.65222703 -0.04091464 33.97836208 -0.05181217 C39.23696664 -0.05704119 44.4955551 -0.06413918 49.75415039 -0.07543945 C54.82453127 -0.08626766 59.89489662 -0.09227669 64.96528816 -0.09487724 C66.90426948 -0.09673161 68.84324991 -0.10035245 70.78222466 -0.10573006 C73.4882176 -0.1129396 76.19414556 -0.11399098 78.90014648 -0.11352539 C80.11502495 -0.1189183 80.11502495 -0.1189183 81.35444641 -0.12442017 C86.88594784 -0.11405216 86.88594784 -0.11405216 88 1 C88.1875 4.4375 88.1875 4.4375 88 8 C85.25789385 10.74210615 83.68862434 10.25797781 79.85546875 10.265625 C78.62119141 10.26820312 77.38691406 10.27078125 76.11523438 10.2734375 C74.81908203 10.26570313 73.52292969 10.25796875 72.1875 10.25 C70.90294922 10.25773437 69.61839844 10.26546875 68.29492188 10.2734375 C67.05677734 10.27085938 65.81863281 10.26828125 64.54296875 10.265625 C63.40883545 10.26336914 62.27470215 10.26111328 61.10620117 10.25878906 C57.98365715 9.99863842 55.83800375 9.27131883 53 8 C43.14061016 5.98787962 34.02785574 6.56073181 24.49609375 9.63671875 C23.26052734 9.81654297 23.26052734 9.81654297 22 10 C20.453125 8.59375 20.453125 8.59375 19 7 C16.71669899 6.63853543 16.71669899 6.63853543 14.3125 6.8125 C13.50425781 6.83957031 12.69601563 6.86664063 11.86328125 6.89453125 C10.94095703 6.94673828 10.94095703 6.94673828 10 7 C8.3303975 9.93229913 7.74625963 12.07742398 7.69140625 15.44140625 C7.66626953 16.27220703 7.64113281 17.10300781 7.61523438 17.95898438 C7.58000055 19.69849158 7.54876791 21.43808431 7.52148438 23.17773438 C7.49505859 24.00724609 7.46863281 24.83675781 7.44140625 25.69140625 C7.42795166 26.44623291 7.41449707 27.20105957 7.40063477 27.97875977 C6.89269555 30.54136109 6.0668117 31.43841569 4 33 C-1.1425403 33.64281754 -1.1425403 33.64281754 -3.69897461 31.72631836 C-5 30 -5 30 -5.14672852 28.12719727 C-4.98321899 27.07616821 -4.98321899 27.07616821 -4.81640625 26.00390625 C-4.69797363 25.20871582 -4.57954102 24.41352539 -4.45751953 23.59423828 C-4.30653809 22.73813965 -4.15555664 21.88204102 -4 21 C-3.76772705 19.66364502 -3.76772705 19.66364502 -3.53076172 18.30029297 C-3.02374272 15.50750837 -2.48595774 12.722425 -1.9375 9.9375 C-1.75123047 8.97650391 -1.56496094 8.01550781 -1.37304688 7.02539062 C-0.91854438 4.68295469 -0.46081098 2.34120156 0 0 Z " fill="#040102" transform="translate(168,40)"/>
<path d="M0 0 C2.767026 0.91567045 4.66894824 2.23331108 6.34765625 4.640625 C8.13702952 9.20868848 7.86306602 13.93242963 7.16015625 18.71484375 C4.87383782 23.6392219 1.99779218 26.29602579 -2.83984375 28.71484375 C-13.03747442 31.41376555 -24.81741351 32.44412012 -34.83984375 28.71484375 C-34.83984375 27.06484375 -34.83984375 25.41484375 -34.83984375 23.71484375 C-34.20820312 23.78703125 -33.5765625 23.85921875 -32.92578125 23.93359375 C-16.21685603 26.12693816 -16.21685603 26.12693816 -0.83984375 20.71484375 C1.32737407 17.46401702 1.43236643 16.42252222 1.41015625 12.65234375 C1.4153125 11.77449219 1.42046875 10.89664063 1.42578125 9.9921875 C1.37574977 7.51682047 1.37574977 7.51682047 -0.83984375 5.71484375 C-3.80532404 5.56880538 -3.80532404 5.56880538 -6.83984375 6.71484375 C-11.89641051 11.77141051 -11.61783928 17.85490552 -11.83984375 24.71484375 C-13.48984375 24.71484375 -15.13984375 24.71484375 -16.83984375 24.71484375 C-17.76395371 11.24337411 -17.76395371 11.24337411 -13.25 5.30859375 C-12.78464844 4.78265625 -12.31929687 4.25671875 -11.83984375 3.71484375 C-11.09734375 2.86921875 -10.35484375 2.02359375 -9.58984375 1.15234375 C-6.10403526 -0.66978342 -3.83361241 -0.67200218 0 0 Z " fill="#D6388E" transform="translate(40.83984375,36.28515625)"/>
<path d="M0 0 C0 0.66 0 1.32 0 2 C0.71027344 1.91621094 1.42054687 1.83242188 2.15234375 1.74609375 C3.07144531 1.64425781 3.99054688 1.54242187 4.9375 1.4375 C6.31228516 1.28087891 6.31228516 1.28087891 7.71484375 1.12109375 C8.46894531 1.08113281 9.22304687 1.04117187 10 1 C10.33 1.33 10.66 1.66 11 2 C12.41664997 2.02193927 13.83410571 1.98870372 15.25 1.9375 C21.10452508 1.8836476 26.86392057 2.33444246 32.6875 2.875 C34.02312988 2.99282837 34.02312988 2.99282837 35.38574219 3.11303711 C40.76690102 3.63384283 45.78896485 4.55619748 51 6 C51 7.98 51 9.96 51 12 C44.9168539 15.04157305 36.07127348 12.83225736 29.66015625 11.6328125 C26.68807831 11.11896338 23.73614857 10.68964579 20.74609375 10.3046875 C19.8113623 10.18198486 18.87663086 10.05928223 17.91357422 9.93286133 C16.04258941 9.68981595 14.17051355 9.45499854 12.29736328 9.22924805 C7.53809252 8.59699906 3.94723092 7.95836305 0 5 C0 5.66 0 6.32 0 7 C-1.32 6.34 -2.64 5.68 -4 5 C-4 3.68 -4 2.36 -4 1 C-2 0 -2 0 0 0 Z " fill="#D6388E" transform="translate(99,27)"/>
<path d="M0 0 C3 1 3 1 3.94921875 2.57421875 C8.76200803 16.35050975 5.85786262 30.59238008 -0.23046875 43.453125 C-0.48441406 43.96359375 -0.73835938 44.4740625 -1 45 C-6.89946921 39.10053079 -5.36387784 26.50253048 -5.38110352 18.65795898 C-5.26421101 12.20560887 -4.85512037 4.85512037 0 0 Z " fill="#080205" transform="translate(66,14)"/>
<path d="M0 0 C2.9091534 1.26484931 4.46015566 2.25450067 6.3125 4.8125 C7.24508259 7.77980823 7.37237901 9.89684156 7 13 C3.87692308 18.70769231 3.87692308 18.70769231 0 20 C-7.1026253 20.57279236 -7.1026253 20.57279236 -10.9375 18.125 C-14.09695358 14.8698054 -14.33421243 12.57586762 -14.29296875 8.0390625 C-13.83745033 4.86865433 -12.24684343 3.1807598 -10 1 C-6.80621918 -0.59689041 -3.47478685 -0.37348957 0 0 Z " fill="#705D43" transform="translate(235,11)"/>
<path d="M0 0 C2.97 0 5.94 0 9 0 C9.33 2.64 9.66 5.28 10 8 C10.33 7.67 10.66 7.34 11 7 C17.27395157 6.53526285 17.27395157 6.53526285 19.71484375 8.09765625 C21.63611025 10.94159785 21.28802094 13.30329514 21.1875 16.6875 C21.16042969 17.86699219 21.13335937 19.04648437 21.10546875 20.26171875 C21.07066406 21.16535156 21.03585938 22.06898437 21 23 C21.99 23 22.98 23 24 23 C24 23.99 24 24.98 24 26 C20.37 26 16.74 26 13 26 C13 25.01 13 24.02 13 23 C13.66 23 14.32 23 15 23 C14.67 19.37 14.34 15.74 14 12 C12.68 12 11.36 12 10 12 C9.67 15.63 9.34 19.26 9 23 C9.66 23 10.32 23 11 23 C11 23.99 11 24.98 11 26 C7.37 26 3.74 26 0 26 C0 25.01 0 24.02 0 23 C0.99 23 1.98 23 3 23 C2.67 16.73 2.34 10.46 2 4 C1.34 3.67 0.68 3.34 0 3 C0 2.01 0 1.02 0 0 Z " fill="#715E43" transform="translate(195,4)"/>
<path d="M0 0 C0 0.66 0 1.32 0 2 C-7.05935378 3.94262315 -13.75925845 4.16980053 -21.02124023 3.92578125 C-25.14878174 3.82706576 -28.34250877 3.99360481 -32 6 C-33.2013147 8.40262939 -33.17116705 10.03652538 -33.24609375 12.71875 C-33.27896484 13.65074219 -33.31183594 14.58273438 -33.34570312 15.54296875 C-33.4068974 17.51420563 -33.46418974 19.48556751 -33.51757812 21.45703125 C-33.55173828 22.38902344 -33.58589844 23.32101563 -33.62109375 24.28125 C-33.6461499 25.13783203 -33.67120605 25.99441406 -33.69702148 26.87695312 C-34 29 -34 29 -36 31 C-39.625 31.125 -39.625 31.125 -43 31 C-42.34 29.68 -41.68 28.36 -41 27 C-40.34 27 -39.68 27 -39 27 C-38.23363909 23.53910321 -37.82850629 20.23922512 -37.68359375 16.69921875 C-37.64169922 15.72275391 -37.59980469 14.74628906 -37.55664062 13.74023438 C-37.51732422 12.73283203 -37.47800781 11.72542969 -37.4375 10.6875 C-37.39431641 9.66076172 -37.35113281 8.63402344 -37.30664062 7.57617188 C-37.20093175 5.05090431 -37.09883532 2.52554438 -37 0 C-36.24847656 -0.14308594 -35.49695313 -0.28617188 -34.72265625 -0.43359375 C-31.83755087 -0.99372699 -31.83755087 -0.99372699 -28.4375 -2.0625 C-19.68232428 -4.25541595 -8.21210738 -4.10605369 0 0 Z " fill="#CC3688" transform="translate(226,49)"/>
<path d="M0 0 C1.5625 1.8125 1.5625 1.8125 1.8125 4.5 C1.73 5.263125 1.6475 6.02625 1.5625 6.8125 C-0.0875 7.1425 -1.7375 7.4725 -3.4375 7.8125 C-4.5625 4.0625 -4.5625 4.0625 -3.4375 1.8125 C-5.0875 2.1425 -6.7375 2.4725 -8.4375 2.8125 C-8.46448189 4.43740954 -8.48388757 6.06244633 -8.5 7.6875 C-8.51160156 8.59242187 -8.52320313 9.49734375 -8.53515625 10.4296875 C-8.59999257 12.8293585 -8.59999257 12.8293585 -7.4375 14.8125 C-6.1175 14.8125 -4.7975 14.8125 -3.4375 14.8125 C-2.7775 13.4925 -2.1175 12.1725 -1.4375 10.8125 C-0.1175 10.8125 1.2025 10.8125 2.5625 10.8125 C2.25012196 13.70199684 1.91911121 15.39883099 0 17.625 C-3.47503605 19.31796628 -6.69974286 19.62828033 -10.4375 18.8125 C-13.12855198 16.63675584 -14.89282928 14.90184144 -16.4375 11.8125 C-16.84954834 7.17695612 -16.31204146 4.50833902 -13.4375 0.8125 C-9.45228087 -2.17641435 -4.39056121 -2.13899136 0 0 Z " fill="#6F5C42" transform="translate(260.4375,12.1875)"/>
<path d="M0 0 C2.5625 1.6875 2.5625 1.6875 4 4 C3.75 6.75 3.75 6.75 3 9 C1.35 8.67 -0.3 8.34 -2 8 C-1.67 6.35 -1.34 4.7 -1 3 C-4.24983135 4.08784968 -4.24983135 4.08784968 -7 6 C-7.30523962 10.65088715 -7.30523962 10.65088715 -6 15 C-3.58380177 15.25030977 -3.58380177 15.25030977 -1 15 C-0.34 14.01 0.32 13.02 1 12 C1.99 12 2.98 12 4 12 C3.68306247 14.93167219 3.36774166 16.58982661 1.375 18.8125 C-1.98376567 20.49188284 -4.28977771 20.45564133 -8 20 C-10.75329021 18.20437595 -12.52627461 16.94745078 -14 14 C-14.5811138 6.91041162 -14.5811138 6.91041162 -12.125 3.0625 C-8.48962946 -0.46594788 -4.91043851 -0.69734038 0 0 Z " fill="#715E43" transform="translate(188,11)"/>
<path d="M0 0 C0 0.66 0 1.32 0 2 C0.71027344 1.91621094 1.42054687 1.83242188 2.15234375 1.74609375 C3.07144531 1.64425781 3.99054688 1.54242187 4.9375 1.4375 C6.31228516 1.28087891 6.31228516 1.28087891 7.71484375 1.12109375 C8.46894531 1.08113281 9.22304687 1.04117187 10 1 C10.33 1.33 10.66 1.66 11 2 C13.71793945 2.07296482 16.42257315 1.99626869 19.140625 1.9375 C21.88970336 1.99758914 24.32828064 2.37594876 27 3 C27 5.64 27 8.28 27 11 C23.43500621 10.58145977 19.87373145 10.13684559 16.3125 9.6875 C15.30509766 9.56955078 14.29769531 9.45160156 13.25976562 9.33007812 C4.04177701 8.14360434 4.04177701 8.14360434 0 5 C0 5.66 0 6.32 0 7 C-1.32 6.34 -2.64 5.68 -4 5 C-4 3.68 -4 2.36 -4 1 C-2 0 -2 0 0 0 Z " fill="#7B7B7C" transform="translate(99,27)"/>
<path d="M0 0 C2.4375 0.4375 2.4375 0.4375 4.4375 2.4375 C5.09685246 6.1005692 5.09057744 8.44446444 3.01171875 11.60546875 C0.09648671 15.03258308 -2.39449486 17.62091369 -6.5625 19.4375 C-6.47499445 17.20761716 -6.36680939 14.97853995 -6.25 12.75 C-6.19199219 11.50863281 -6.13398437 10.26726563 -6.07421875 8.98828125 C-5.4477206 4.64105365 -4.72331365 0.8064194 0 0 Z " fill="#0C0308" transform="translate(106.5625,50.5625)"/>
<path d="M0 0 C0.66 0 1.32 0 2 0 C2.83211276 5.03854106 3.1078534 9.8125662 3.0625 14.9375 C3.05798828 15.62134766 3.05347656 16.30519531 3.04882812 17.00976562 C3.0371956 18.67321604 3.01926694 20.3366205 3 22 C2.67 21.34 2.34 20.68 2 20 C-1.96 20 -5.92 20 -10 20 C-10 18.35 -10 16.7 -10 15 C-8.68 15 -7.36 15 -6 15 C-5.67 13.68 -5.34 12.36 -5 11 C-5 11.99 -5 12.98 -5 14 C-3.35 14 -1.7 14 0 14 C0 9.38 0 4.76 0 0 Z " fill="#651B43" transform="translate(160,19)"/>
<path d="M0 0 C1.65 0 3.3 0 5 0 C5.05834353 3.22909006 5.09371115 6.45804338 5.125 9.6875 C5.14175781 10.59951172 5.15851563 11.51152344 5.17578125 12.45117188 C5.20936169 17.06848227 5.23556185 20.81932331 3 25 C-0.5361739 19.69573915 -0.12967778 14.35235321 -0.0625 8.1875 C-0.05573242 7.00510742 -0.05573242 7.00510742 -0.04882812 5.79882812 C-0.03711312 3.86585239 -0.01917998 1.93291607 0 0 Z " fill="#D5388D" transform="translate(154,40)"/>
<path d="M0 0 C3.875 0.875 3.875 0.875 5 2 C5.1245486 3.64230364 5.17568524 5.29052276 5.1875 6.9375 C5.20167969 7.83339844 5.21585938 8.72929687 5.23046875 9.65234375 C5 12 5 12 3 14 C1 13.8125 1 13.8125 -1 13 C-3.32579101 9.51131349 -3.41865457 8.10281481 -3 4 C-1.5 1.625 -1.5 1.625 0 0 Z " fill="#070604" transform="translate(230,14)"/>
<path d="M0 0 C0.66 0.33 1.32 0.66 2 1 C1.99214478 2.0058313 1.99214478 2.0058313 1.98413086 3.03198242 C1.96328395 6.083812 1.95031531 9.13562656 1.9375 12.1875 C1.92912109 13.24259766 1.92074219 14.29769531 1.91210938 15.38476562 C1.90727539 16.91713867 1.90727539 16.91713867 1.90234375 18.48046875 C1.89710693 19.41785889 1.89187012 20.35524902 1.88647461 21.32104492 C1.91869573 24.02962523 1.91869573 24.02962523 2.63110352 26.7199707 C2.75283936 27.47238037 2.8745752 28.22479004 3 29 C1 31 1 31 -2.625 31.125 C-3.73875 31.08375 -4.8525 31.0425 -6 31 C-5.34 29.68 -4.68 28.36 -4 27 C-3.34 27 -2.68 27 -2 27 C-1.23363909 23.53910321 -0.82850629 20.23922512 -0.68359375 16.69921875 C-0.64169922 15.72275391 -0.59980469 14.74628906 -0.55664062 13.74023438 C-0.51732422 12.73283203 -0.47800781 11.72542969 -0.4375 10.6875 C-0.39431641 9.66076172 -0.35113281 8.63402344 -0.30664062 7.57617188 C-0.20093175 5.05090431 -0.09883532 2.52554438 0 0 Z " fill="#AC2D72" transform="translate(189,49)"/>
<path d="M0 0 C4.62 0 9.24 0 14 0 C14.28164073 9.57578466 13.50373609 18.99039291 10 28 C9.34 27.34 8.68 26.68 8 26 C8.31710938 25.38769531 8.63421875 24.77539062 8.9609375 24.14453125 C10.43400364 19.68656794 10.46665858 15.355273 10.625 10.6875 C10.66367188 9.75615234 10.70234375 8.82480469 10.7421875 7.86523438 C10.83605826 5.57713461 10.91910082 3.28859511 11 1 C7.37 1 3.74 1 0 1 C0 0.67 0 0.34 0 0 Z " fill="#3D1028" transform="translate(148,39)"/>
<path d="M0 0 C0 0.66 0 1.32 0 2 C1.98 1.67 3.96 1.34 6 1 C6 2.98 6 4.96 6 7 C4.02 6.34 2.04 5.68 0 5 C0 5.66 0 6.32 0 7 C-1.32 6.34 -2.64 5.68 -4 5 C-4 3.68 -4 2.36 -4 1 C-2 0 -2 0 0 0 Z " fill="#7B7C7C" transform="translate(99,27)"/>
<path d="M0 0 C3.3 0 6.6 0 10 0 C10 1.32 10 2.64 10 4 C6.7 4 3.4 4 0 4 C0 2.68 0 1.36 0 0 Z " fill="#E23B96" transform="translate(151,35)"/>
<path d="M0 0 C1.32 0 2.64 0 4 0 C4.33 2.31 4.66 4.62 5 7 C3.02 7 1.04 7 -1 7 C-0.67 4.69 -0.34 2.38 0 0 Z " fill="#5E5F5F" transform="translate(105,28)"/>
<path d="M0 0 C0.33 0.66 0.66 1.32 1 2 C1.66 2 2.32 2 3 2 C1.62845496 4.95409701 0.01136276 7.44008376 -2 10 C-1.125 2.25 -1.125 2.25 0 0 Z " fill="#8C255D" transform="translate(129,50)"/>
<path d="M0 0 C0 1.98 0 3.96 0 6 C-1.98 5.34 -3.96 4.68 -6 4 C-4.82249287 1.64498575 -2.80021952 0 0 0 Z " fill="#818282" transform="translate(105,28)"/>
</svg>
