<?xml version="1.0" encoding="UTF-8" standalone="no"?>
<svg xmlns:dc="http://purl.org/dc/elements/1.1/" xmlns:cc="http://creativecommons.org/ns#" xmlns:rdf="http://www.w3.org/1999/02/22-rdf-syntax-ns#" xmlns:svg="http://www.w3.org/2000/svg" xmlns="http://www.w3.org/2000/svg" xmlns:sodipodi="http://sodipodi.sourceforge.net/DTD/sodipodi-0.dtd" xmlns:inkscape="http://www.inkscape.org/namespaces/inkscape" version="1.1" id="svg2" xml:space="preserve" width="381" height="260" viewBox="0 0 380.99998 259.99999" sodipodi:docname="Daft Punk logo.svg" inkscape:version="0.92.5 (2060ec1f9f, 2020-04-08)"><metadata id="metadata8"><rdf:RDF><cc:Work rdf:about=""><dc:format>image/svg+xml</dc:format><dc:type rdf:resource="http://purl.org/dc/dcmitype/StillImage"/><dc:title/></cc:Work></rdf:RDF></metadata><defs id="defs6"/><sodipodi:namedview pagecolor="#ffffff" bordercolor="#666666" borderopacity="1" objecttolerance="10" gridtolerance="10" guidetolerance="10" inkscape:pageopacity="0" inkscape:pageshadow="2" inkscape:window-width="1920" inkscape:window-height="1017" id="namedview4" showgrid="false" fit-margin-top="0" fit-margin-left="0" fit-margin-right="0" fit-margin-bottom="0" inkscape:pagecheckerboard="true" inkscape:zoom="2.3356505" inkscape:cx="120.26668" inkscape:cy="129.14348" inkscape:window-x="-8" inkscape:window-y="-8" inkscape:window-maximized="1" inkscape:current-layer="g12"/><g id="g10" inkscape:groupmode="layer" inkscape:label="ink_ext_XXXXXX" transform="matrix(1.3333333,0,0,-1.3333333,-11.338546,308.04946)"><g id="g12" transform="scale(0.1)"><path d="m 647.46285,1886.797 c 0,0 41.61346,-7.5298 47.91384,-23.8174 5.04844,-17.5479 2.52179,-33.8355 -20.1775,-45.114 -22.69928,-11.2785 -50.43563,-22.557 -64.31274,-25.0616 -13.86411,-2.5045 -44.13361,-5.009 -44.13361,-5.009 0,0 -3.78024,-20.0525 25.21944,-22.5732 27.74935,-2.5045 58.00585,0 58.00585,0 l -27.73635,-27.5661 c 0,0 11.34395,-11.2785 30.25813,-3.7649 20.1775,8.774 -10.079,-25.0615 -10.079,-25.0615 0,0 -42.87841,6.2694 -54.23375,-5.0091 -10.08549,-11.2785 -50.434,-20.0525 -50.434,-20.0525 l -41.61345,-5.009 -22.69929,-22.5571 c 0,0 -52.96879,-2.5045 -44.14174,22.5571 8.82867,25.0615 27.74285,58.897 27.74285,58.897 l 47.92035,38.8608 v 27.5661 c 0,0 27.74772,-8.774 50.4405,13.783 22.69929,22.557 44.14012,47.6185 44.14012,47.6185 z M 356.15889,1044.632 c 0,0 25.22106,-11.2801 25.22106,-25.0647 0,-13.7912 -16.39239,-27.57583 -16.39239,-27.57583 l -31.52796,36.34333 z m 2.52178,50.1215 c 0,0 45.39857,93.9962 70.61801,97.7578 25.22757,2.4997 73.14141,38.8495 73.14141,38.8495 0,0 35.31307,25.0583 39.09168,-11.285 2.52178,-36.3368 7.56372,-81.4541 7.56372,-81.4541 0,0 -13.86411,-46.3727 -21.43433,-71.4375 -8.82217,-25.0583 16.39239,-83.96669 -34.04324,-120.30998 -50.447,-35.08778 -75.66807,-13.77981 -75.66807,-13.77981 0,0 -36.5699,11.27366 2.52178,50.1231 l 78.18986,77.70529 c 0,0 -44.13524,17.5399 -60.53414,-7.5233 -17.65572,-25.0647 -31.52145,-22.5586 -31.52145,-22.5586 0,0 0,36.3433 -13.87712,38.8494 -13.87061,2.5046 -34.04811,25.0632 -34.04811,25.0632 z M 85.0391,1200.0298 c 0,0 55.48391,8.7723 73.13963,25.0631 16.39239,17.5415 52.96391,22.5587 52.96391,22.5587 l 32.79129,20.0524 c 0,0 11.34232,-63.919 22.69278,-70.1868 11.34883,-5.0059 20.1775,-27.5645 20.1775,-27.5645 0,0 41.61834,86.4664 97.1024,114.0373 56.74252,27.5758 68.09135,88.9838 68.09135,88.9838 0,0 61.79096,-27.5773 78.18336,-27.5773 16.39239,0 55.48406,36.3513 80.70513,13.7927 25.22757,-22.5586 70.61963,-41.3556 70.61963,-41.3556 0,0 5.04844,-42.6111 16.3924,-67.6759 11.35533,-25.0648 22.69928,-96.5023 2.52665,-100.2575 -18.91905,-2.5061 -50.447,-100.2639 -58.00422,-125.3206 -8.83518,-23.8093 -73.14792,-162.92272 -98.36736,-187.98588 -25.21456,-25.06478 -121.06014,-83.96669 -148.80298,-92.73419 -27.73635,-7.52331 -61.79097,6.26135 -75.66158,17.54147 -13.8641,11.2785 -30.263,38.84944 -30.263,38.84944 0,0 -30.26463,-175.45022 -34.04974,-214.29966 -2.52178,-38.84944 -7.56372,-70.17557 -7.56372,-70.17557 v -71.43752 c 0,0 -28.99967,-8.77397 -34.04973,-25.06478 -5.04194,-17.54632 -8.82705,-36.34329 -25.21944,-38.84944 -16.3924,-3.76166 -22.69929,27.57093 -22.69929,27.57093 L 96.38858,360.371 c 0,0 2.521456,58.90191 16.3932,114.04216 13.87061,55.14025 20.17751,136.60078 20.17751,194.24719 0,58.90837 13.87061,200.52146 13.87061,200.52146 0,0 -13.87061,45.11725 2.52178,52.62763 16.39239,8.77397 27.74772,58.90837 27.74772,58.90837 0,0 -47.92522,25.05829 -58.01235,83.96669 -11.34883,57.6464 -34.04795,135.3453 -34.04795,135.3453 z m 1393.441,42.6046 52.9687,2.5126 6.3004,-22.5586 32.7848,-5.0188 c 0,0 -13.8722,-25.0583 -5.0435,-45.1108 8.8319,-18.8034 -41.6135,-75.1927 -41.6135,-100.2639 0,-25.0632 -8.8271,-66.4188 -8.8271,-66.4188 0,0 103.4158,75.1992 148.7949,109.0299 44.1434,32.5881 78.1899,68.933 78.1899,68.933 0,0 71.8813,47.6218 94.579,77.6988 22.6976,31.331 31.5263,38.843 47.9154,25.0632 16.3892,-13.7847 20.1775,-41.354 20.1775,-41.354 0,0 27.738,-22.5586 18.9093,-52.6357 -8.8124,-31.331 -8.8124,-58.9084 -8.8124,-58.9084 0,0 -78.1898,-61.408 -75.6697,-91.477 3.7884,-31.3326 15.1372,-27.5758 65.5728,2.5061 49.1837,30.0755 99.6193,52.6341 99.6193,52.6341 l 59.2806,63.9142 c 0,0 -39.1031,8.7724 -41.6232,22.5587 -2.5202,13.7782 41.6232,47.6218 41.6232,47.6218 0,0 -20.1775,30.077 -13.8852,43.8617 5.0565,13.7847 22.6976,38.8494 22.6976,38.8494 l 58.0124,6.2614 c 0,0 70.6131,102.7685 75.6697,114.047 6.3085,11.2785 22.6976,36.34 66.8247,77.6892 45.4116,41.3653 84.4984,122.8193 84.4984,141.6276 0,20.0525 11.3488,45.114 11.3488,45.114 0,0 36.5667,13.7831 44.1271,-3.7649 8.8287,-16.2875 -7.5604,-80.2098 3.7884,-93.9929 11.3488,-13.783 41.6232,41.3653 41.6232,41.3653 0,0 34.0302,-30.0868 13.8527,-52.6438 -18.9092,-22.557 -30.2581,-52.6276 -30.2581,-52.6276 0,0 0,-63.9223 -25.2178,-86.4793 -25.2178,-22.557 -56.7441,-63.9094 -56.7441,-63.9094 l -5.0403,-68.9249 c 0,0 66.8247,48.8724 103.4076,46.3663 36.5504,-2.5062 78.1736,11.2801 78.1736,11.2801 l 123.5852,38.8478 71.8813,11.2785 c 0,0 121.0488,20.0525 126.0891,33.8355 6.3085,13.7831 -41.607,-50.1231 -78.1736,-75.1959 -36.5666,-25.0567 -83.2302,-2.4981 -105.9278,-22.5522 -22.6977,-18.8018 -84.4821,-61.4129 -84.4821,-61.4129 l 52.9557,6.2678 c 0,0 -119.7968,-36.3384 -153.8433,-58.897 -32.7945,-22.5587 -150.0549,-88.9839 -150.0549,-88.9839 0,0 78.1736,-72.6801 92.0426,-105.2682 13.869,-33.8322 61.7844,-100.25747 126.1053,-131.59006 64.3046,-30.06901 114.7565,-52.62763 114.7565,-52.62763 0,0 -25.2178,-43.86821 -68.093,-30.08194 -41.6232,13.79113 -100.8875,7.52332 -100.8875,7.52332 0,0 -30.2744,56.38929 -80.71,72.6801 -50.4356,16.29728 -114.7402,33.83874 -114.7402,33.83874 0,0 -50.4519,18.80182 -66.841,38.84944 -16.4054,18.80183 -56.7442,27.57583 -56.7442,27.57583 0,0 0,-18.797 -16.3891,-36.34979 -16.4054,-16.29082 -69.3612,-63.91422 -89.5387,-82.71119 -18.9256,-20.05247 -36.5667,-53.88313 -39.0868,-78.95438 -2.5364,-23.80766 -22.7139,-82.70957 -22.7139,-82.70957 0,0 -11.3489,-16.29081 -16.3892,-41.35559 -5.0403,-25.06478 -87.0022,-111.536 -100.8875,-120.3035 -13.869,-7.52332 -73.1333,-102.77012 -75.6534,-125.32228 -2.5202,-21.30797 -13.869,-38.8559 -13.869,-38.8559 l -22.6977,88.97899 -25.2178,-38.84944 -11.3651,38.84944 -35.2984,6.26781 c 0,0 52.9558,82.70957 75.6534,110.28697 21.4457,28.81835 69.3612,120.3035 78.1899,147.87929 7.5605,27.56447 71.8813,172.9376 71.8813,172.9376 0,0 -16.4054,36.3449 -66.841,-25.0567 -50.4356,-61.40806 -100.8875,-88.98546 -100.8875,-88.98546 0,0 8.8287,-42.60463 -32.7783,-63.9126 -42.8752,-22.55863 -64.3209,-8.77397 -64.3209,-8.77397 l -8.8124,22.55863 c 0,0 -31.5263,-22.55863 -34.0627,5.01069 -2.5202,27.5774 -7.5605,97.75296 11.3488,127.8349 20.1775,31.32451 22.7139,83.96022 22.7139,83.96022 v 30.08193 c 0,0 -109.7194,-77.70533 -126.1118,-110.28696 -16.3924,-33.83713 -69.3547,-72.68657 -69.3547,-72.68657 l -47.9187,-61.40806 c 0,0 -84.4903,-22.55862 -89.5338,-36.3449 -6.3069,-13.77819 -56.7474,-11.2785 -75.6616,-16.29081 -20.1775,-6.26619 -16.3924,47.6234 0,52.63571 16.3924,5.01716 -52.9623,25.06317 -52.9623,25.06317 0,0 94.5758,97.75134 100.8762,136.60078 5.0484,38.8559 60.5325,91.48514 60.5325,91.48514 0,0 31.5279,91.49 54.2272,114.0486 21.4343,22.5587 52.9623,72.6801 52.9623,72.6801 z m -670.87194,-88.979 c 0,0 32.78478,57.6529 60.53413,66.4204 29.00618,8.7788 39.09168,-41.3556 39.09168,-41.3556 0,0 47.91872,21.3096 59.26918,0 11.34883,-22.5586 8.82705,-36.3368 -27.74285,-67.6759 -36.56989,-30.069 -50.44701,-75.1862 -50.44701,-102.762 0,-27.56449 -36.56339,-93.98324 -36.56339,-93.98324 0,0 52.95579,36.33682 100.88264,52.62763 47.91876,16.29082 89.53216,72.69301 89.53216,72.69301 0,0 66.8329,41.3556 75.6551,57.6464 8.8352,17.5399 39.0982,61.4016 39.0982,61.4016 l 50.4421,25.0713 c 0,0 36.5634,68.9249 69.3547,41.3539 34.0481,-27.5757 -2.5218,-66.4252 -2.5218,-66.4252 l 52.9623,20.0525 c 0,0 -32.7848,-67.6759 -32.7848,-81.4541 0,-13.7846 -84.4902,-72.6865 -84.4902,-105.27463 0,-33.83228 -52.9623,-102.76365 -52.9623,-102.76365 l -39.0982,-56.38929 c 0,0 -16.3859,-91.49162 -34.0416,-100.26397 -16.3924,-7.51846 -50.4422,6.26781 -50.4422,6.26781 0,0 -58.0058,-20.05246 -71.87641,-20.05246 -13.87712,0 13.87061,38.84782 13.87061,38.84782 l -25.22595,15.04177 c 0,0 52.96875,63.91422 55.49055,99.00847 2.5218,36.34328 -8.82865,31.32451 -22.69926,11.27204 -13.87061,-18.79697 -52.96229,-75.18626 -80.70513,-88.97738 -27.74122,-13.78628 -75.66157,-27.56447 -75.66157,-27.56447 l -78.18336,-86.47284 -50.447,20.04762 h -34.04324 c 0,0 0,38.84943 -16.39239,43.86659 -16.3989,6.26135 -41.61996,-7.52331 -41.61996,-7.52331 0,0 27.74284,105.26819 66.83452,125.32066 39.09168,18.79697 45.39857,71.43753 45.39857,71.43753 0,0 -17.65085,52.62925 7.57022,75.18789 25.22107,22.5586 56.74252,75.1992 56.74252,75.1992 z m 75.66157,419.8318 c -2.52016,16.2876 0,31.331 10.092,55.1484 20.17913,47.6185 103.40442,88.9676 107.18957,105.2552 2.5217,17.548 44.1352,42.6257 44.1352,42.6257 0,0 -13.8722,32.5751 -2.5218,32.5751 11.344,0 50.4405,38.8446 64.3128,58.8971 13.8706,18.8083 34.0416,50.1392 50.4405,52.6438 16.3924,2.5045 44.1352,-11.2785 44.1352,-11.2785 l 29.0046,27.5661 c 0,0 21.4359,0 41.6134,-2.5046 18.9142,-2.5045 47.9204,-2.5045 59.2692,-18.7921 10.0855,-17.5479 18.9142,-61.4178 18.9142,-61.4178 l 41.6134,63.9223 31.528,52.6277 c 0,0 11.3488,22.557 30.263,25.0615 20.1775,2.5046 8.827,-25.0615 20.1775,-27.5661 11.3488,-2.5045 55.4841,0 66.8329,-6.2694 11.3504,-5.0091 13.8787,-16.2876 -2.5202,-30.0706 -17.6573,-13.7831 -75.6632,-93.9929 -81.9684,-125.3239 -5.0436,-30.0706 -18.9142,-72.6963 -18.9142,-72.6963 l -22.6993,-43.8536 c 0,0 34.0481,-2.5046 52.9623,11.2785 20.1775,13.783 59.2692,32.5751 59.2692,32.5751 l 55.484,36.3562 c 0,0 -7.5604,31.331 17.6574,72.6801 25.2178,41.3653 83.2302,75.2008 83.2302,75.2008 0,0 75.6534,93.993 89.5224,122.8032 13.8852,27.5823 34.0465,46.3744 34.0465,46.3744 0,0 -20.1613,22.557 16.4054,56.3925 36.5666,32.5913 70.6131,52.6438 70.6131,52.6438 0,0 -20.1775,36.3401 7.5605,47.6186 27.7542,10.0343 68.1092,35.0958 68.1092,35.0958 0,0 25.2178,20.0525 32.7783,6.2533 8.8287,-13.783 61.8007,11.2785 61.8007,11.2785 l 34.0465,13.783 c 0,0 30.2581,-8.7578 25.2178,-31.3148 -6.3085,-21.3128 -6.3085,-50.1392 -6.3085,-50.1392 0,0 41.6232,-35.0959 25.2178,-66.4269 -16.3891,-30.0706 -8.8287,-57.6367 -27.738,-77.6891 -20.1775,-18.7922 -20.1775,-38.8446 -20.1775,-38.8446 0,0 -27.7379,30.0706 -52.9558,0 -25.234,-30.0868 -58.0123,-33.8355 -58.0123,-33.8355 0,0 -29.0062,-18.8083 -36.5829,3.7487 -8.8124,21.3128 47.9317,60.1574 47.9317,60.1574 l 2.5202,86.4631 c 0,0 -47.9155,6.2695 -52.9721,-18.7921 -6.2922,-25.0615 -20.1775,-63.9061 -20.1775,-63.9061 0,0 -18.9093,-22.557 -22.6976,-45.1302 -2.5202,-22.5408 -27.738,-41.3491 -41.607,-61.4016 -13.869,-18.7921 -27.738,-63.9061 -27.738,-63.9061 l -31.5263,-43.8699 c 0,0 81.962,5.0091 121.0488,36.3401 39.103,30.0868 126.1053,71.4359 126.1053,71.4359 l 46.6635,-5.0091 93.3271,30.0707 c 0,0 16.3891,-5.0091 5.0403,-18.7922 -11.3488,-13.783 -50.4519,-42.6094 -50.4519,-42.6094 l -55.4759,-27.5661 c 0,0 -25.2179,33.8355 -42.8752,11.2785 -16.4054,-22.557 -74.4015,-55.1484 -74.4015,-55.1484 l 50.4356,-6.2694 -61.7844,-43.8536 c 0,0 -47.9318,11.2785 -73.1496,-6.2695 -25.2178,-16.2876 -94.579,-38.8446 -94.579,-38.8446 0,0 -59.2643,-5.0252 -79.4418,-52.6438 -18.9093,-47.6185 -41.6069,-119.0544 -41.6069,-119.0544 0,0 -2.5202,-11.2785 -7.5768,-25.0616 -5.0403,-16.3037 -13.8689,-36.34 -22.6976,-42.6094 -17.6574,-10.0182 -36.5667,-25.0616 -64.3046,-52.6277 -29.0095,-27.5822 -31.5312,-63.9223 -29.0095,-80.2099 3.7852,-16.2924 8.8352,-47.625 8.8352,-47.625 0,0 -41.6199,6.2678 -64.3192,-13.7846 -22.6993,-18.797 -52.9623,-27.571 -52.9623,-27.571 l 2.5218,50.1296 -30.2647,-63.9142 -34.0481,18.7969 c 0,0 47.9204,102.7605 61.791,127.822 13.8706,25.0616 34.0481,88.9839 34.0481,88.9839 l 18.9142,42.6094 5.0435,13.7831 c 0,0 -11.3504,-6.2695 -25.2145,-13.7831 -26.4844,-13.783 -63.0559,-33.8355 -71.883,-45.114 -13.8706,-16.3037 -47.9203,-50.1231 -47.9203,-50.1231 0,0 -13.8706,-11.2946 -25.2211,-16.3037 -11.3488,-6.2694 -50.4405,-20.0525 -50.4405,-20.0525 0,0 8.8287,50.1393 2.5218,70.1756 -3.7786,12.5388 0,42.6095 3.7851,61.4177 1.2568,10.0182 2.5218,16.2876 2.5218,16.2876 0,0 -8.8287,-6.2694 -15.1356,-16.2876 -2.5218,-3.7649 -6.3069,-8.7739 -7.5637,-13.783 -5.0436,-17.5479 -34.0498,-42.6095 -44.1353,-47.6347 -11.3488,-6.2533 -36.5764,-11.2624 -36.5764,-11.2624 0,0 -25.2145,-52.6438 -42.8702,-61.4177 -16.3924,-7.5136 -46.6554,2.5045 -46.6554,2.5045 0,0 -29.0062,-18.7921 -56.7491,-18.7921 -27.7412,0 -44.14007,38.8446 -44.14007,38.8446 0,0 -13.86573,-11.2785 -34.04324,-6.2694 -18.91254,6.2694 -22.69928,25.0777 -22.69928,25.0777 0,0 -16.39239,-13.7992 -32.78478,36.34 -8.82705,25.0616 -15.13394,41.3491 -16.3989,56.3925 z m 234.55007,0 c 15.1421,8.774 29.0127,17.548 39.0982,21.2967 27.7428,15.0434 80.7051,83.9748 80.7051,83.9748 l -69.3547,-27.5661 7.5637,27.5661 c 0,0 -23.9561,-2.5046 -49.1771,-2.5046 -25.2211,0 -22.6993,16.2876 -22.6993,16.2876 0,0 64.3127,38.8446 92.0539,56.3925 27.7429,16.2876 27.7429,48.8789 27.7429,60.1574 0,11.2785 -55.4841,13.7831 -66.8345,6.2695 -11.3489,-8.774 -25.2211,-58.8971 -50.4405,-75.2008 l -16.3924,-25.0616 -20.1792,-47.6185 c 0,0 -25.2194,-55.1484 -50.4405,-68.9314 -10.092,-6.2694 -13.8706,-15.0434 -16.3924,-25.0616 -3.78507,-15.0434 0,-31.3309 0,-31.3309 l 55.4841,-5.0091 c 0,0 30.263,18.7921 59.2627,36.34 z m 1195.4609,433.6084 c 0,0 -31.5263,5.0253 -42.8751,16.2876 -11.3489,11.2785 -66.8248,22.5732 -66.8248,22.5732 l 39.0868,36.34 41.607,5.0091 -36.5667,36.3401 c 0,0 50.4519,50.1392 87.0185,41.3491 36.5667,-7.4975 98.3511,-43.8537 98.3511,-43.8537 0,0 44.1434,-20.0525 55.4922,2.5046 11.3489,22.557 36.5667,58.897 64.3047,52.6437 29.0061,-5.0252 17.6573,-50.1392 17.6573,-50.1392 0,0 61.8007,11.2947 66.841,0 5.0403,-11.2624 -27.7379,-60.1413 -27.7379,-60.1413 0,0 18.9093,-22.5731 64.3046,-28.8264 44.1271,-5.0252 78.1898,-43.8698 78.1898,-43.8698 l 126.0891,-33.8355 64.3209,-30.0707 c 0,0 -89.5387,11.2785 -109.7162,11.2785 -18.9093,0 -44.1271,0 -44.1271,0 l 27.7379,-33.8355 c 0,0 -75.6534,25.0616 -109.7161,27.5661 -32.7783,2.5046 -124.8372,6.2694 -147.5348,13.7831 -22.6977,8.7739 -39.0868,25.0615 -39.0868,25.0615 0,0 -31.5264,17.5479 -45.3953,-5.0091 -13.869,-22.557 -58.0124,-56.3925 -83.2302,-70.1755 -25.2341,-13.7831 -70.6131,-46.3744 -107.196,-91.4884 -36.5667,-43.8698 -147.5348,-150.3855 -186.6216,-180.4722 -39.1031,-31.331 -134.934,-164.1685 -134.934,-164.1685 l -58.0124,-6.2694 -6.3085,45.1301 c 0,0 -18.9093,-30.0868 -44.1271,-45.1301 -25.2178,-13.7831 -54.224,-21.2967 -54.224,-21.2967 0,0 45.3953,68.9314 100.8713,121.559 56.7604,53.888 204.2952,220.5772 210.6037,236.8647 5.0403,16.2876 126.089,139.107 126.089,139.107 z M 826.52884,1859.2147 c 11.34883,13.7831 55.48406,106.5318 75.66157,122.8194 20.1775,16.2876 61.79096,58.897 61.79096,68.9314 0,11.2785 58.00583,97.7416 66.83293,117.7941 8.8286,18.8083 50.4421,63.9223 50.4421,63.9223 l 75.6616,-28.8265 -22.6993,-38.8607 h 36.5699 c 0,0 -11.3489,-27.5499 -25.2195,-41.3491 -13.8722,-13.7831 -52.9639,-72.6801 -52.9639,-72.6801 l -39.0965,-50.1393 -70.61316,-82.6983 -60.52763,-114.0453 c 0,0 -25.21944,-31.331 -34.05462,-41.3653 -8.82217,-11.2785 -22.69278,-42.6095 -22.69278,-42.6095 0,0 -50.44213,-41.3491 -66.8394,-66.4107 -16.39239,-25.0615 -39.09167,-72.6963 -25.21456,-102.7669 13.87061,-30.0706 13.87061,-58.897 13.87061,-58.897 -25.22107,-16.3038 -45.39857,0 -59.26918,-5.0091 -13.87711,-6.2694 -21.43595,-20.0686 -32.79129,-11.2947 -11.34395,8.774 -47.91384,22.5732 -47.91384,36.3401 0,13.7992 -8.82868,88.9838 -8.82868,88.9838 0,0 -80.7035,-47.6185 -94.58062,-52.6276 -13.87223,-6.2694 -52.96391,2.5045 -70.61313,-2.5046 -16.39889,-6.2694 -35.31307,-17.5479 -55.49057,-6.2694 -18.91417,11.2785 -59.26918,20.0525 -59.26918,20.0525 l -10.0855,25.0615 c 0,0 -31.52796,10.0182 -45.39206,13.7831 -13.87712,2.5045 -27.74935,32.5913 -27.74935,50.1392 0,16.2876 -8.82705,66.4107 16.39239,82.6983 25.22106,17.5479 39.09167,63.9223 39.09167,63.9223 0,0 25.22107,6.2694 42.87679,13.783 16.3989,8.774 58.01235,36.3401 58.01235,36.3401 0,0 27.73635,17.5479 47.91385,38.8607 18.92068,22.557 47.92035,45.114 100.88914,67.6711 52.95578,21.2966 100.87613,41.3491 100.87613,41.3491 l 36.5699,-11.2785 c 0,0 18.91417,8.7739 32.79129,8.7739 13.87061,0 52.96228,-11.2785 52.96228,-11.2785 0,0 20.171,-36.34 20.171,-50.1231 0,-13.783 2.52829,-70.1917 2.52829,-70.1917" style="fill:#231f20;fill-opacity:1;fill-rule:evenodd;stroke:none;stroke-width:1.62086129" id="path16" inkscape:connector-curvature="0"/></g></g></svg>