<svg width="852.413" height="852.413" viewBox="0 0 852.413 852.413" xmlns="http://www.w3.org/2000/svg"><path d="M4821.66 1659.81 3528.42 3680.26l-13.8 19.09-15.87 16.98-18.04 14.81-19.07 13.78-21.22 10.59-21.22 7.42-23.3 6.37-23.32 2.11h-23.31l-23.31-2.11-22.28-5.3-22.26-7.42-20.15-10.59-20.11-12.74-18.03-14.81-15.94-18.04-13.75-18.01-11.68-20.16-8.46-21.18-7.43-23.33-3.19-22.29-1.03-23.32 1.03-23.3 47.71-384.8 2.11-26.48-2.11-26.51-3.2-26.5-7.4-26.51-9.55-24.37-12.7-24.37-14.86-22.28-16.95-20.18-19.07-17.99-21.23-16.97-23.29-13.77-24.39-10.57-25.44-8.48-26.5-6.38-26.52-2.1-85.85-4.25-29.68-3.18-28.62-5.29-28.6-9.57-26.52-11.67-26.5-14.84-24.37-16.93-22.26-20.16-20.14-21.19-569.25-689.03-15.92-16.93-16.94-14.82-19.07-11.69-21.21-10.62-21.19-6.37-22.25-5.29-22.29-1.07-22.25 1.07-22.26 3.16-22.27 6.39-21.2 9.54-19.07 11.69-18.02 13.75-15.91 15.9-13.78 18.02-11.65 19.09-9.55 21.21-6.37 21.16-4.23 22.28-1.06 22.24 2.11 23.35 4.26 22.26 7.41 21.18 9.55 20.18 1058.98 1916.51 8.48 19.07 6.34 20.16 3.17 20.13 1.08 21.22-2.13 20.1-5.28 20.16-7.44 20.13-10.59 18.03-11.68 15.92-14.83 14.82-16.94 12.73-18.04 10.61-19.08 8.46-20.13 4.24-20.14 3.2-21.2-1.07-20.16-3.18-20.13-5.3-19.07-8.48-18.03-11.66-15.9-12.72-263.95-251.24-25.46-22.23-27.53-21.22-29.68-18.01-30.75-14.85-31.79-12.72-31.83-10.59-33.9-6.37-33.93-4.26-34.98-2.11h-660.41l-32.84 1.07-32.88 4.23-31.79 6.36-30.73 9.56-30.76 11.65-29.67 13.79-28.64 15.9-26.48 19.07-25.44 20.13-23.33 23.32-22.25 24.4-19.1 26.52-18 27.52-14.85 28.65-12.74 29.69-10.59 30.7-7.42 31.81-5.3 32.86-3.18 32.88v31.81l3.18 32.84 5.3 31.81 7.42 31.8 10.59 31.8 12.74 29.69 14.85 28.62 18 27.53 19.1 26.53 22.25 24.37 23.33 22.27 25.44 21.2 26.48 18.03 28.64 16.96 29.67 13.75 30.76 11.66 30.73 8.49 31.79 7.42 32.88 3.19 32.84 2.11h2395.68l34.98-2.11 35-4.23 33.9-7.44 32.88-10.6 32.83-12.72 30.76-15.89 29.7-18.01 27.53-21.22 25.46-23.33 24.38-25.44 21.16-26.49 19.13-29.7 16.96-30.71 13.75-31.81L5255.2 1879.26l8.48-24.39 5.29-24.35 2.13-25.45v-26.53l-2.13-25.44-5.29-24.36-8.48-24.39-9.55-23.33-12.73-22.24-15.88-21.18-16.96-19.09-19.08-17-20.14-14.82-22.24-12.73-23.33-10.57-24.41-8.48-25.43-5.31-25.43-2.13h-25.46l-25.44 3.2-25.42 5.28-24.39 7.44-23.31 10.57-22.26 12.73-21.23 15.92-18.01 16.99-16.94 19.05z" style="fill:#000;fill-opacity:1;fill-rule:nonzero;stroke:none" transform="matrix(.13333 0 0 -.13333 0 852.413)"/><path d="M3196.54 395.191c-1547.15 0-2801.345 1254.219-2801.345 2801.349 0 1547.17 1254.195 2801.36 2801.345 2801.36 1547.17 0 2801.36-1254.19 2801.36-2801.36 0-1547.13-1254.19-2801.349-2801.36-2801.349m0 5997.909C1431.12 6393.1 0 4961.98 0 3196.54 0 1431.16 1431.12 0 3196.54 0 4961.98 0 6393.1 1431.16 6393.1 3196.54c0 1765.44-1431.12 3196.56-3196.56 3196.56" style="fill:#000;fill-opacity:1;fill-rule:nonzero;stroke:none" transform="matrix(.13333 0 0 -.13333 0 852.413)"/></svg>