<?xml version="1.0" encoding="utf-8"?>
<!-- Generator: Adobe Illustrator 16.0.0, SVG Export Plug-In . SVG Version: 6.00 Build 0)  -->
<!DOCTYPE svg PUBLIC "-//W3C//DTD SVG 1.1//EN" "http://www.w3.org/Graphics/SVG/1.1/DTD/svg11.dtd">
<svg version="1.1"
	 id="svg3879" xmlns:dc="http://purl.org/dc/elements/1.1/" xmlns:cc="http://creativecommons.org/ns#" xmlns:rdf="http://www.w3.org/1999/02/22-rdf-syntax-ns#" xmlns:svg="http://www.w3.org/2000/svg" xmlns:sodipodi="http://sodipodi.sourceforge.net/DTD/sodipodi-0.dtd" xmlns:inkscape="http://www.inkscape.org/namespaces/inkscape" sodipodi:docname="Kopia flash vcs.svg" inkscape:version="0.48.3.1 r9886"
	 xmlns="http://www.w3.org/2000/svg" xmlns:xlink="http://www.w3.org/1999/xlink" x="0px" y="0px" width="468px" height="325px"
	 viewBox="15.499 12.088 468 325" enable-background="new 15.499 12.088 468 325" xml:space="preserve">
<sodipodi:namedview  fit-margin-left="0" fit-margin-top="0" showguides="true" showgrid="false" inkscape:cy="266.71907" inkscape:cx="223.38064" inkscape:zoom="0.7660845" borderopacity="1.0" bordercolor="#666666" pagecolor="#ffffff" id="base" fit-margin-bottom="0" fit-margin-right="0" inkscape:window-maximized="1" inkscape:window-y="24" inkscape:window-x="65" inkscape:window-height="744" inkscape:window-width="1295" inkscape:guide-bbox="true" inkscape:current-layer="layer4" inkscape:document-units="px" inkscape:pageshadow="2" inkscape:pageopacity="0.0">
	</sodipodi:namedview>
<g>
	<g id="layer1" transform="translate(3.9692485,-836.01476)" inkscape:label="Layer 1" inkscape:groupmode="layer">
		<path id="path3861" inkscape:connector-curvature="0" fill="none" stroke="#000000" stroke-width="5.4733" d="M297.075,853.847
			c-9.396,0.001-17.781,5.895-20.965,14.734l-6.5,18.033c-4.845-3.501-10.893-4.91-16.786-3.909l-41.539,7.037
			c-8.557,1.458-15.488,7.75-17.764,16.126l-4.154,15.296l0.978-15.394c0.788-12.283-8.53-22.88-20.813-23.668
			c-1.026-0.066-2.058-0.061-3.084,0.016L141.573,884c-4.23-3.552-9.629-5.407-15.149-5.205l-88.16,3.445
			c-12.144,0.478-21.666,10.598-21.404,22.749l3.494,161.292c0.267,12.116,10.166,21.798,22.284,21.797h33.549
			c11.073-0.01,20.46-8.148,22.04-19.108l5.84-40.562l2.443,41.979c0.716,12.287,11.258,21.668,23.546,20.951
			c0.346-0.02,0.69-0.048,1.035-0.084l23.75-2.518c5.221,5.432,12.831,7.859,20.232,6.451l27-5.155
			c4.852-0.941,9.252-3.468,12.511-7.185c4.417,3.879,10.187,5.854,16.054,5.498l12.29-0.758l-16.713,48.162
			c-4.042,11.625,2.107,24.326,13.733,28.367c9.39,3.264,19.806-0.084,25.533-8.209l72.79-103.285l1.979,20.207
			c1.209,12.249,12.118,21.199,24.367,19.99c1.094-0.107,2.178-0.297,3.244-0.564l24.116-6.061c4.686,2.148,9.97,2.605,14.954,1.295
			l27.146-7.207c8.581-2.275,14.993-9.428,16.322-18.205l24.532-161.585c1.849-12.169-6.519-23.532-18.688-25.38
			c-2.841-0.432-5.738-0.31-8.532,0.359l-45.741,10.971c-0.854,0.211-1.694,0.472-2.517,0.782c-0.934-0.1-1.872-0.141-2.811-0.122
			l0.294-0.538c5.761-10.877,1.613-24.365-9.264-30.126c-3.214-1.702-6.795-2.592-10.431-2.592H297.075L297.075,853.847z
			 M312.737,898.416h27.489l-23.335,44.104c-5.748,10.884-1.584,24.367,9.301,30.114c3.203,1.691,6.771,2.577,10.394,2.579h1.686
			l-26.242,37.239c-2.634-9.697-11.431-16.432-21.479-16.445H271.59c4.779-2.608,8.438-6.876,10.287-11.998L312.737,898.416
			L312.737,898.416z M105.263,924.219c-0.242,0.255-0.479,0.516-0.709,0.782H90.7c-11.348,0.006-20.88,8.539-22.138,19.817
			l-2.761,24.605c-0.719,6.498,1.452,12.983,5.938,17.739c-4.001,2.937-6.907,7.124-8.259,11.9l-1.588-73.133L105.263,924.219
			L105.263,924.219z M144.236,928.495l-0.708,11.265l-0.073-1.295c-0.212-3.414-1.207-6.733-2.908-9.7L144.236,928.495z
			 M235.817,930.792l2.859,47.012c0.561,9.201,6.728,17.106,15.516,19.89c-8.723,3.578-14.251,12.256-13.806,21.673l0.464,9.383
			c-4.358-3.383-9.817-5.027-15.32-4.617l-18.351,1.393l25.607-94.22L235.817,930.792L235.817,930.792z"/>
	</g>
	<g id="layer2" transform="translate(60.984179,-413.1735)" inkscape:label="Warstwa#1" inkscape:groupmode="layer">
		<path id="path3787" inkscape:connector-curvature="0" stroke="#000000" stroke-width="32.0582" stroke-linejoin="round" d="
			M113.856,650.471l27.013-5.172l6.536-20.063l22.801-1.725l2.033,19.75l35.582-2.195l-2.178-45.61h27.885l-43.279,124.763
			l129.982-184.479h8.715l-30.354,42.633l6.826,69.435l27.449-6.896l1.888-47.805l10.747-1.881l-1.307,51.88l27.158-7.21
			l24.544-161.596l-45.748,10.972l-2.613,77.115l-11.184,2.194l3.776-78.055l-33.694,7.68l-13.507,24.608l0.437,11.285h-13.798
			l40.665-76.801h-80.168L203.9,553.608l-4.356-71.786l-41.537,7.053l-33.403,122.882h-21.785l8.278-130.249l-41.827,3.135
			l1.017-6.426l-88.156,3.448l3.485,161.282h33.549l8.714-60.657h24.109l5.664-33.229H30.928l2.759-24.607h28.611l1.888-7.523
			l7.552,129.308l44.587-4.702L113.856,650.471z"/>
	</g>
	<g id="layer4" transform="translate(60.984179,-413.1735)" inkscape:label="Warstwa#2" inkscape:groupmode="layer">
		<g>
			<path fill="#F6AB1E" d="M350.149,485.27l-2.613,77.115l-11.184,2.194l3.776-78.055l-33.694,7.68l-13.507,24.608l0.437,11.285
				h-13.798l40.665-76.801h-80.168L203.9,553.608l-4.356-71.786l-41.537,7.053l-33.403,122.882h-21.785l8.278-130.249l-41.827,3.135
				l1.017-6.426l-88.156,3.448l3.485,161.282h33.549l8.714-60.657h24.109l5.664-33.229H30.928l2.759-24.607h28.611l1.888-7.523
				l7.552,129.308l44.587-4.702l-2.469,8.934l27.013-5.172l6.536-20.063l22.801-1.725l2.033,19.75l35.582-2.195l-2.178-45.61h27.885
				l-43.279,124.763l129.982-184.479h8.715l-30.354,42.633l6.826,69.435l27.449-6.896l1.888-47.805l10.747-1.881l-1.307,51.88
				l27.158-7.21l24.544-161.596L350.149,485.27z M156.318,594.397l8.356-23.176l3.277,22.063L156.318,594.397z"/>
			<g id="text3879_8_" transform="scale(0.91769379,1.0896881)">
				<path id="path3956_8_" inkscape:connector-curvature="0" d="M413.341,406.808v-13.352h10.777v2.258h-7.602v3.161h6.563v2.258
					h-6.563v5.674H413.341"/>
				<path id="path3958_8_" inkscape:connector-curvature="0" d="M426.701,406.808v-13.352h4.751l2.852,9.107l2.82-9.107h4.761
					v13.352h-2.949v-10.51l-3.121,10.51h-3.055l-3.109-10.51v10.51H426.701"/>
			</g>
		</g>
	</g>
	<g id="layer3" transform="translate(3.9692485,-836.01476)" inkscape:label="Warstwa" inkscape:groupmode="layer">
	</g>
</g>
</svg>
